<svg width="480" height="357" viewBox="0 0 480 357" fill="none" xmlns="http://www.w3.org/2000/svg">
<path id="Shape" fill-rule="evenodd" clip-rule="evenodd" d="M134.777 151.453C105.478 151.453 79.8726 160.889 63.6943 182.056C59.2357 187.921 57.1975 187.284 58.2166 180.143C70.0637 102.489 117.707 54.5455 196.306 32.4862C203.312 30.446 207.006 23.688 204.586 16.8024L202.166 9.91684C199.745 3.03128 191.975 -1.30407 184.968 0.353568C65.8599 28.7884 0 114.858 0 224.517C0 306.506 44.0764 357 114.65 357C191.465 357 228.025 307.781 228.025 249.764C228.025 188.049 188.917 151.453 134.777 151.453ZM386.752 151.453C357.452 151.453 331.847 160.889 315.669 182.056C311.338 187.921 309.172 187.284 310.318 180.143C322.166 102.489 369.809 54.5455 448.408 32.4862C455.414 30.446 459.108 23.688 456.688 16.8024L454.268 9.91684C451.847 3.03128 444.076 -1.30407 437.07 0.353568C317.834 28.7884 251.975 114.858 251.975 224.517C251.975 306.506 296.051 357 366.624 357C443.44 357 480 307.781 480 249.764C480 188.049 440.892 151.453 386.752 151.453Z" fill="white"/>
</svg>
